<svg xmlns="http://www.w3.org/2000/svg" viewBox="0 0 512 512" width="512" height="512">
  <!-- Background -->
  <rect width="512" height="512" fill="#F5F7F2"/>

  <!-- Left TreePine – colour #6B8E9B, 80% opacity
       scale(5.09), positioned so its 24×24 box bottom aligns with centre tree -->
  <g transform="translate(16, 231.6) scale(5.09)"
     fill="none" stroke="#6B8E9B" stroke-width="1.57" stroke-linecap="round" stroke-linejoin="round" opacity="0.8">
    <path d="m17 14 3 3.3a1 1 0 0 1-.7 1.7H4.7a1 1 0 0 1-.7-1.7L7 14h-.3a1 1 0 0 1-.7-1.7L9 9h-.2A1 1 0 0 1 8 7.3L12 3l4 4.3a1 1 0 0 1-.8 1.7H15l3 3.3a1 1 0 0 1-.7 1.7H17Z"/>
    <path d="M12 22v-3"/>
  </g>

  <!-- Centre TreeDeciduous – colour #5A7D4D
       scale(8.15), centred horizontally, vertically centred as group -->
  <g transform="translate(158.2, 158.2) scale(8.15)"
     fill="none" stroke="#5A7D4D" stroke-width="0.98" stroke-linecap="round" stroke-linejoin="round">
    <path d="M8 19a4 4 0 0 1-2.24-7.32A3.5 3.5 0 0 1 9 6.03V6a3 3 0 1 1 6 0v.04a3.5 3.5 0 0 1 3.24 5.65A4 4 0 0 1 16 19Z"/>
    <path d="M12 19v3"/>
  </g>

  <!-- Right TreePine – colour #D4A373, 80% opacity -->
  <g transform="translate(373.8, 231.6) scale(5.09)"
     fill="none" stroke="#D4A373" stroke-width="1.57" stroke-linecap="round" stroke-linejoin="round" opacity="0.8">
    <path d="m17 14 3 3.3a1 1 0 0 1-.7 1.7H4.7a1 1 0 0 1-.7-1.7L7 14h-.3a1 1 0 0 1-.7-1.7L9 9h-.2A1 1 0 0 1 8 7.3L12 3l4 4.3a1 1 0 0 1-.8 1.7H15l3 3.3a1 1 0 0 1-.7 1.7H17Z"/>
    <path d="M12 22v-3"/>
  </g>
</svg>
